<svg width="102" height="17" viewBox="0 0 102 17" fill="none" xmlns="http://www.w3.org/2000/svg">
<path d="M14.431 15.1427C13.9913 15.4975 11.3525 16.7442 8.35588 16.7442C3.2319 16.7442 0 13.0751 0 8.37209C0 3.66912 3.61032 0 8.79567 0C13.981 0 13.1833 0.598006 14.339 1.05411L14.8504 5.02731L14.4719 5.1388C12.4776 2.10823 11.056 0.871671 8.5093 0.871671C4.36715 0.871671 2.6387 4.05428 2.6387 8.36196C2.6387 12.6696 4.40806 15.8522 8.35588 15.8522C12.3037 15.8522 13.1015 13.744 14.5435 10.6628L14.922 10.7743L14.431 15.1225V15.1427ZM21.5698 15.6901L25.2927 15.538C27.0211 15.4671 28.3711 13.6731 29.5473 11.798L29.9257 11.95L28.903 16.4097H18.2868V16.3692C19.0436 15.011 19.2175 14.2407 19.2175 12.4365V4.17591C19.2175 2.42243 19.0436 1.69266 18.3073 0.375021V0.334478H22.4801V0.375021C21.7233 1.69266 21.5698 2.42243 21.5698 4.17591V15.6901ZM31.6746 16.4097V16.3692C32.6974 15.2948 33.0758 14.3927 33.761 12.5885L38.3941 0.152036H39.3044L44.009 12.7811C44.7659 14.7779 45.2466 15.5482 46.0443 16.359V16.3996H41.6976V16.359C42.1169 15.7407 42.1885 14.4231 41.5442 12.6696L40.7669 10.5614H35.4281L35.0088 11.7067C34.0576 14.2508 34.6099 15.6597 35.1009 16.3692V16.4097H31.6849H31.6746ZM40.4294 9.71L38.0771 3.38533L35.7247 9.71H40.4294ZM52.6717 16.4097H48.5296V16.3692C49.266 15.0515 49.4398 14.3015 49.4398 12.548V4.19618C49.4398 2.4123 49.266 1.69266 48.5296 0.375021V0.334478H54.1854C58.0923 0.334478 59.6571 1.91565 59.6571 4.30767C59.6571 6.6997 58.6855 7.73354 56.5582 8.48359L59.0844 13.3386C60.0356 15.1833 60.5265 15.7103 61.6822 16.2779V16.4097H58.0207L54.1138 8.89915H51.7615V12.548C51.7615 14.3319 51.9354 15.0515 52.6717 16.3692V16.4097ZM51.7615 1.20615V8.03761H53.7559C56.4866 8.03761 57.1923 6.25373 57.1923 4.38876C57.1923 2.52379 56.415 1.17574 53.7354 1.17574C51.0558 1.17574 52.7331 1.17574 51.7615 1.19601V1.20615ZM64.1368 16.3692C64.8936 15.0515 65.047 14.3218 65.047 12.5683V4.17591C65.047 2.42243 64.8936 1.69266 64.1368 0.375021V0.334478H68.2789V0.375021C67.5425 1.69266 67.3687 2.42243 67.3687 4.17591V12.5683C67.3687 14.3218 67.5425 15.0515 68.2994 16.3692L68.2789 16.4097H64.1368V16.3692ZM71.7767 16.3692C72.5131 15.1833 72.687 14.5447 72.687 12.9838V3.76035C72.687 2.19945 72.5131 1.5609 71.7767 0.375021V0.334478C74.5689 0.334478 74.9473 0.243257 77.8928 0.243257C83.2827 0.243257 86.5657 3.03058 86.5657 8.2606C86.5657 13.4906 83.4157 16.4097 77.8314 16.4097H71.7767V16.3692ZM77.6985 1.09466H75.0189V15.5988L77.6576 15.5583C82.1986 15.4468 83.9066 12.8521 83.9066 8.2606C83.9066 3.66913 81.8406 1.09466 77.6985 1.09466ZM87.4351 16.4097V16.3692C88.4578 15.2948 88.8363 14.3927 89.5215 12.5885L94.1546 0.152036H95.0648L99.7695 12.7811C100.526 14.7779 101.007 15.5482 101.805 16.359V16.3996H97.4581V16.359C97.8774 15.7407 97.949 14.4231 97.3046 12.6696L96.5273 10.5614H91.1886L90.7693 11.7067C89.8181 14.2508 90.3704 15.6597 90.8613 16.3692V16.4097H87.4453H87.4351ZM96.1898 9.71L93.8375 3.38533L91.4852 9.71H96.1898Z" fill="white"/>
</svg>
