<svg width="26" height="26" viewBox="0 0 26 26" fill="none" xmlns="http://www.w3.org/2000/svg">
<path d="M14.365 19.9875L8.79531 15.9738H5.38281V9.75004H8.45L14.3731 6.01254C14.397 5.99826 14.4243 5.99053 14.4521 5.99013C14.48 5.98973 14.5074 5.99668 14.5317 6.01027C14.556 6.02387 14.5763 6.04363 14.5906 6.06756C14.6048 6.09149 14.6125 6.11876 14.6128 6.1466V19.8575C14.6127 19.8863 14.6047 19.9145 14.5897 19.939C14.5748 19.9636 14.5534 19.9837 14.528 19.997C14.5025 20.0104 14.4739 20.0166 14.4452 20.0149C14.4165 20.0132 14.3887 20.0038 14.365 19.9875Z" stroke="white" stroke-linecap="square"/>
<path d="M16.51 10.859L20.7959 15.1409" stroke="white"/>
<path d="M16.51 15.1409L20.7959 10.859" stroke="white"/>
</svg>
