<svg width="100" height="100" viewBox="0 0 100 100" fill="none" xmlns="http://www.w3.org/2000/svg">
<path d="M16.6672 58.3351C15.8787 58.3378 15.1057 58.1167 14.4378 57.6975C13.77 57.2783 13.2348 56.6782 12.8945 55.967C12.5541 55.2557 12.4226 54.4625 12.5151 53.6795C12.6076 52.8964 12.9205 52.1557 13.4172 51.5434L54.6672 9.0434C54.9766 8.68624 55.3983 8.44489 55.863 8.35896C56.3276 8.27303 56.8077 8.34762 57.2244 8.5705C57.6411 8.79339 57.9696 9.15131 58.1561 9.58552C58.3426 10.0197 58.3759 10.5044 58.2505 10.9601L50.2505 36.0434C50.0146 36.6748 49.9354 37.3539 50.0197 38.0226C50.1039 38.6913 50.3491 39.3296 50.7342 39.8827C51.1194 40.4358 51.6329 40.8872 52.2309 41.1982C52.8288 41.5093 53.4932 41.6706 54.1672 41.6684L83.3339 41.6684C84.1223 41.6657 84.8954 41.8868 85.5632 42.306C86.231 42.7252 86.7662 43.3253 87.1066 44.0365C87.4469 44.7477 87.5785 45.541 87.486 46.324C87.3934 47.107 87.0806 47.8477 86.5839 48.4601L45.3339 90.9601C45.0244 91.3172 44.6028 91.5586 44.1381 91.6445C43.6734 91.7304 43.1934 91.6558 42.7767 91.433C42.36 91.2101 42.0314 90.8522 41.845 90.4179C41.6585 89.9837 41.6252 89.499 41.7505 89.0434L49.7505 63.9601C49.9864 63.3287 50.0657 62.6496 49.9814 61.9809C49.8972 61.3122 49.652 60.6739 49.2668 60.1208C48.8817 59.5677 48.3681 59.1163 47.7702 58.8052C47.1723 58.4942 46.5078 58.3329 45.8339 58.3351H16.6672Z" stroke="white" stroke-width="2" stroke-linecap="round" stroke-linejoin="round"/>
</svg>
