<svg width="100" height="100" viewBox="0 0 100 100" fill="none" xmlns="http://www.w3.org/2000/svg">
<path d="M87.4377 52.0244C87.0472 59.2583 84.5697 66.2243 80.3046 72.0802C76.0396 77.9362 70.1697 82.4314 63.4044 85.0224C56.6392 87.6135 49.2682 88.1895 42.1826 86.6808C35.0969 85.172 28.6 81.6432 23.4771 76.5209C18.3542 71.3985 14.8247 64.902 13.3152 57.8165C11.8058 50.731 12.381 43.36 14.9713 36.5944C17.5617 29.8289 22.0562 23.9585 27.9117 19.6929C33.7672 15.4272 40.7329 12.949 47.9668 12.5577C49.6543 12.4661 50.5377 14.4744 49.6418 15.9036C46.6456 20.6975 45.3626 26.3655 46.0022 31.9825C46.6419 37.5995 49.1665 42.8339 53.164 46.8314C57.1615 50.8289 62.3959 53.3535 68.0129 53.9931C73.6299 54.6328 79.2979 53.3498 84.0918 50.3535C85.5252 49.4577 87.5293 50.3369 87.4377 52.0244Z" stroke="white" stroke-width="2" stroke-linecap="round" stroke-linejoin="round"/>
</svg>
