<svg width="13" height="25" viewBox="0 0 13 25" fill="none" xmlns="http://www.w3.org/2000/svg">
<g clip-path="url(#clip0_1_60)">
<path d="M3.82041 24.227C5.35486 24.227 6.86031 24.227 8.39477 24.227C8.39477 20.6812 8.39477 17.1507 8.39477 13.5927C9.66811 13.5927 10.9157 13.5927 12.1825 13.5927C12.3728 12.1975 12.5629 10.8235 12.7564 9.41613C11.2864 9.41613 9.84542 9.41613 8.398 9.41613C8.398 8.38183 8.36253 7.37785 8.40766 6.37691C8.4528 5.36688 9.04273 4.84214 10.1162 4.79968C10.9544 4.76632 11.7957 4.76935 12.637 4.75721C12.721 4.75721 12.8079 4.75721 12.8885 4.75721C12.8885 3.49846 12.8885 2.27005 12.8885 1.03858C12.6145 1.01735 12.3566 0.996119 12.0987 0.974887C11.6893 0.944556 11.2799 0.911192 10.8705 0.880859C10.1903 0.880859 9.51337 0.880859 8.83319 0.880859C8.75582 0.896026 8.68168 0.92029 8.60108 0.92939C7.51149 1.05375 6.51216 1.38437 5.66756 2.06378C4.4329 3.05563 3.92035 4.37505 3.8462 5.85219C3.7914 6.94412 3.82041 8.04212 3.81396 9.13708C3.81396 9.22503 3.81396 9.31603 3.81396 9.43433C2.52773 9.43433 1.27373 9.43433 0.0229492 9.43433C0.0229492 10.8356 0.0229492 12.2067 0.0229492 13.6049C1.28984 13.6049 2.5374 13.6049 3.81396 13.6049C3.82041 17.1567 3.82041 20.6872 3.82041 24.227Z" fill="white"/>
</g>
<defs>
<clipPath id="clip0_1_60">
<rect width="13" height="25" fill="white"/>
</clipPath>
</defs>
</svg>
