<svg width="25" height="25" viewBox="0 0 25 25" fill="none" xmlns="http://www.w3.org/2000/svg">
<g clip-path="url(#clip0_1_66)">
<path d="M24.2179 9.87236C24.2179 8.79891 24.2179 7.72547 24.2179 6.65542C24.2146 3.98703 22.5752 1.7284 20.0365 0.902154C19.7004 0.793794 19.3407 0.746386 18.9911 0.668502C18.9402 0.658342 18.8927 0.634638 18.8417 0.621094C14.4463 0.621094 10.051 0.621094 5.65899 0.621094C5.48589 0.654957 5.3128 0.685433 5.13971 0.722682C3.25937 1.13242 1.8542 2.17539 0.94457 3.8719C0.608554 4.49836 0.40832 5.17223 0.326861 5.87995C0.323467 5.91382 0.296291 5.94769 0.282715 5.98155C0.282715 10.3668 0.282715 14.7519 0.282715 19.1338C0.316656 19.3065 0.347214 19.4792 0.384549 19.6519C0.791841 21.5212 1.83383 22.923 3.52749 23.8272C4.42354 24.3046 5.38745 24.501 6.40229 24.4976C10.3055 24.4909 14.2087 24.5112 18.112 24.4875C20.7254 24.4739 22.5956 23.2346 23.719 20.8913C24.0856 20.126 24.2213 19.2997 24.2179 18.4497C24.2179 15.5918 24.2179 12.7338 24.2179 9.87236ZM22.2086 18.6767C22.2019 20.5358 20.6813 22.2119 18.8349 22.4489C18.6584 22.4726 18.4786 22.493 18.302 22.493C14.2291 22.493 10.1528 22.5031 6.07985 22.4862C4.25721 22.4794 2.56018 20.9285 2.33956 19.1237C2.30901 18.8697 2.29203 18.6123 2.29203 18.3584C2.28863 16.4214 2.28864 14.4879 2.28864 12.5509H2.29203C2.29203 10.4988 2.27846 8.44674 2.29543 6.39468C2.30901 4.57624 3.84654 2.88651 5.65899 2.65624C5.83549 2.63253 6.01535 2.61222 6.19185 2.61222C10.2648 2.60884 14.3411 2.60206 18.414 2.6156C20.2536 2.62238 21.9371 4.15635 22.1679 5.98832C22.1883 6.15764 22.212 6.32694 22.212 6.49626C22.2154 10.5632 22.2223 14.62 22.2086 18.6767Z" fill="white"/>
<path d="M12.2504 6.58984C8.94456 6.58984 6.2666 9.26161 6.2666 12.5598C6.2666 15.858 8.94456 18.5298 12.2504 18.5298C15.5529 18.5298 18.2342 15.8546 18.2342 12.5598C18.2342 9.26161 15.5563 6.58984 12.2504 6.58984ZM12.2606 16.5286C10.051 16.5319 8.26573 14.7575 8.26913 12.5497C8.27252 10.3554 10.0476 8.58436 12.2504 8.58774C14.4532 8.58774 16.2248 10.3588 16.2282 12.5531C16.2351 14.7507 14.4634 16.5251 12.2606 16.5286Z" fill="white"/>
<path d="M18.7434 4.58989C17.9254 4.58312 17.2432 5.26037 17.2432 6.08662C17.2398 6.91625 17.9084 7.57996 18.74 7.57658C19.5682 7.57318 20.2504 6.89255 20.2402 6.07646C20.2266 5.27053 19.5546 4.60005 18.7434 4.58989Z" fill="white"/>
</g>
<defs>
<clipPath id="clip0_1_66">
<rect width="25" height="25" fill="white"/>
</clipPath>
</defs>
</svg>
