<svg width="25" height="25" viewBox="0 0 25 25" fill="none" xmlns="http://www.w3.org/2000/svg">
<g clip-path="url(#clip0_1_62)">
<path d="M13.8208 24.4815C12.1832 24.4815 10.5457 24.4815 8.9082 24.4815C8.9082 19.1911 8.9082 13.9008 8.9082 8.56831C10.4617 8.56831 12.0573 8.56831 13.6528 8.56831C13.6528 9.2821 13.6528 9.9539 13.6528 10.6677C13.6947 10.6257 13.7367 10.6257 13.7367 10.6257C14.8284 8.90421 16.4659 8.19042 18.4393 8.14844C19.615 8.14844 20.7067 8.31638 21.7563 8.90421C22.932 9.57602 23.5618 10.6257 23.8978 11.8853C24.1916 12.893 24.2757 13.9427 24.3176 14.9504C24.3596 18.0155 24.3176 21.1226 24.3176 24.1876C24.3176 24.2296 24.3176 24.2717 24.3176 24.3556C22.6801 24.3556 21.0426 24.3556 19.363 24.3556C19.363 24.2296 19.363 24.1456 19.363 24.0197C19.363 21.5844 19.363 19.1911 19.363 16.7559C19.363 15.9161 19.3211 15.1184 19.1532 14.3206C18.8592 12.851 17.8516 12.3052 16.424 12.4731C14.9543 12.6411 14.1566 13.4389 13.9467 14.9923C13.8628 15.5383 13.8208 16.084 13.8208 16.63C13.8208 19.1072 13.8208 21.5844 13.8208 24.0617C13.8208 24.2296 13.8208 24.3556 13.8208 24.4815Z" fill="white"/>
<path d="M0.846436 24.4796C0.846436 19.1892 0.846436 13.8989 0.846436 8.56641C2.48394 8.56641 4.12146 8.56641 5.75897 8.56641C5.75897 13.8569 5.75897 19.1473 5.75897 24.4796C4.12146 24.4796 2.48394 24.4796 0.846436 24.4796Z" fill="white"/>
<path d="M3.28166 6.38509C1.72812 6.38509 0.426514 5.08348 0.426514 3.48796C0.426514 1.93442 1.72812 0.632812 3.32365 0.632812C4.87719 0.632812 6.22078 1.93442 6.17879 3.52995C6.1368 5.08349 4.87719 6.38509 3.28166 6.38509Z" fill="white"/>
</g>
<defs>
<clipPath id="clip0_1_62">
<rect width="25" height="25" fill="white"/>
</clipPath>
</defs>
</svg>
