<svg width="25" height="25" viewBox="0 0 25 25" fill="none" xmlns="http://www.w3.org/2000/svg">
<path d="M9.51172 16.6366V8.36316C9.51209 8.32916 9.52151 8.29587 9.53901 8.26671C9.55651 8.23756 9.58147 8.2136 9.6113 8.19728C9.64114 8.18097 9.67478 8.17291 9.70877 8.17391C9.74276 8.17492 9.77587 8.18496 9.80469 8.203L16.3164 12.3397C16.343 12.3571 16.3648 12.3809 16.38 12.4088C16.3951 12.4368 16.403 12.4681 16.403 12.4999C16.403 12.5317 16.3951 12.5629 16.38 12.5909C16.3648 12.6189 16.343 12.6426 16.3164 12.66L9.80469 16.7968C9.77587 16.8148 9.74276 16.8248 9.70877 16.8258C9.67478 16.8268 9.64114 16.8188 9.6113 16.8025C9.58147 16.7862 9.55651 16.7622 9.53901 16.733C9.52151 16.7039 9.51209 16.6706 9.51172 16.6366Z" stroke="white" stroke-opacity="0.5"/>
<path d="M12.5 22.4531C17.997 22.4531 22.4531 17.997 22.4531 12.5C22.4531 7.00304 17.997 2.54688 12.5 2.54688C7.00304 2.54688 2.54688 7.00304 2.54688 12.5C2.54688 17.997 7.00304 22.4531 12.5 22.4531Z" stroke="white" stroke-opacity="0.5"/>
</svg>
