<svg width="34" height="25" viewBox="0 0 34 25" fill="none" xmlns="http://www.w3.org/2000/svg">
<path d="M17.1598 1.57422C20.2361 1.66562 23.2659 1.75702 26.3422 1.8941C27.2745 1.9398 28.2067 2.0312 29.139 2.21398C31.0966 2.53387 32.3085 3.722 32.6815 5.6413C33.1942 8.42886 33.2874 11.2164 33.1942 14.004C33.1474 15.4663 33.0077 16.9285 32.8678 18.3452C32.8212 18.985 32.6815 19.6247 32.495 20.2645C32.0289 21.864 30.6772 22.8694 28.906 23.0979C25.6897 23.509 22.4735 23.509 19.2107 23.5547C15.4817 23.6005 11.7528 23.509 8.07051 23.3262C7.13828 23.2805 6.15944 23.1435 5.22721 23.0064C3.31614 22.7322 2.05763 21.5897 1.73135 19.7162C1.49829 18.3909 1.31184 17.02 1.26523 15.6491C1.17201 13.5927 1.17201 11.5363 1.26523 9.5256C1.31184 8.10898 1.49829 6.64665 1.77796 5.27573C2.19745 3.53922 3.64242 2.35108 5.46026 2.1226C8.58325 1.75702 11.7528 1.71132 14.9224 1.66562C15.6682 1.66562 16.414 1.66562 17.2064 1.66562C17.1598 1.61992 17.1598 1.61992 17.1598 1.57422ZM14.0368 7.92618C14.0368 11.0793 14.0368 14.1411 14.0368 17.2942C16.7869 15.7405 19.5369 14.1867 22.3336 12.633C19.5369 11.0336 16.8335 9.5256 14.0368 7.92618Z" fill="white"/>
</svg>
