<svg width="26" height="26" viewBox="0 0 26 26" fill="none" xmlns="http://www.w3.org/2000/svg">
<path d="M13.8612 19.9875L8.29156 15.9738H4.875V9.75004H7.93813L13.8612 6.01254C13.8852 5.99826 13.9124 5.99053 13.9402 5.99013C13.9681 5.98973 13.9956 5.99668 14.0199 6.01027C14.0442 6.02387 14.0644 6.04363 14.0787 6.06756C14.0929 6.09149 14.1006 6.11876 14.1009 6.1466V19.8575C14.0999 19.885 14.0917 19.9118 14.0772 19.9352C14.0627 19.9585 14.0423 19.9777 14.0181 19.9909C13.994 20.004 13.9668 20.0106 13.9393 20.01C13.9117 20.0094 13.8849 20.0017 13.8612 19.9875Z" stroke="white" stroke-linecap="square"/>
<path d="M16.0997 9.8678C16.7786 10.0564 17.3778 10.4604 17.807 11.0191C18.2363 11.5778 18.4723 12.2609 18.4797 12.9654C18.487 13.6699 18.2652 14.3577 17.8477 14.9252C17.4301 15.4927 16.8395 15.9092 16.1647 16.1119" stroke="white"/>
<path d="M17.1559 7.68213C18.2906 8.02158 19.2869 8.71515 19.9991 9.6614C20.7114 10.6077 21.1022 11.757 21.1144 12.9413C21.1267 14.1256 20.7597 15.2827 20.0672 16.2435C19.3747 17.2043 18.393 17.9183 17.2656 18.2812" stroke="white"/>
</svg>
